# xmcd CD database file
#
# Track frame offsets:
#	150
#	19531
#	34651
#	51826
#	66109
#	82265
#	102745
#	118407
#	131795
#	151309
#	166744
#	187633
#	205597
#	222427
#	239322
#	252049
#	265678
#	283507
#	297071
#	313670
#	329875
#	342775
#
# Disc length: 4749 seconds
#
# Revision: 0
# Processed by: cddbd v1.5.2PL0 Copyright (c) Steve Scherf et al.
# Submitted via: ACXtractor (MTCDDB.DLL V2003.07.15)
#
DISCID=45128b16
DTITLE=Mixed - L.B.S. Country collection No3
DYEAR=2000
DGENRE=Country
TTITLE0=Wrapping Paper
TTITLE1=High School Dance
TTITLE2=Time to Say Goodbye
TTITLE3=Old Boots and Jeans
TTITLE4=Don't Tell Him
TTITLE5=Old rodeo Clown
TTITLE6=Old Comb and Cutters
TTITLE7=Boys will be Boys
TTITLE8=Red Dirt Road
TTITLE9=Red Hot Momma
TTITLE10=I Built a Bridge( to get over you) Everlyn Bury and Reg Poole
TTITLE11=Kimberly Dreams  Adi Burgess
TTITLE12=When Australia was Young/ Rex Dallas  
TTITLE13=Country Memories  Debbie Keating
TTITLE14=Let me go Lover
TTITLE15=Can't we Runaway
TTITLE16=Old time music Man
TTITLE17=Highway No1
TTITLE18=Boots'n All
TTITLE19=Wait till the tide comes In
TTITLE20=I can Walk on Water
TTITLE21=Tight blue Jeans
EXTD=ID3G:   2 YEAR: 2000
EXTT0=
EXTT1=
EXTT2=
EXTT3=
EXTT4=
EXTT5=
EXTT6=
EXTT7=
EXTT8=
EXTT9=
EXTT10=
EXTT11=
EXTT12=
EXTT13=
EXTT14=
EXTT15=
EXTT16=
EXTT17=
EXTT18=
EXTT19=
EXTT20=
EXTT21=
PLAYORDER=
